<svg xmlns="http://www.w3.org/2000/svg" width="1200" height="320" viewBox="0 0 1200 320" role="img" aria-labelledby="title desc">
  <title id="title">MetaDrop</title>
  <desc id="desc">Inspect, sanitize and verify file metadata locally on Linux.</desc>
  <defs>
    <linearGradient id="bg" x1="0" y1="0" x2="1" y2="1">
      <stop stop-color="#15191d"/>
      <stop offset="1" stop-color="#080a0c"/>
    </linearGradient>
    <linearGradient id="silver" x1="0" y1="0" x2="0" y2="1">
      <stop stop-color="#f7f8f9"/>
      <stop offset="1" stop-color="#aeb5ba"/>
    </linearGradient>
  </defs>
  <rect width="1200" height="320" fill="url(#bg)"/>
  <g opacity=".14" stroke="#d8dde0">
    <path d="M0 40h1200M0 280h1200M40 0v320M1160 0v320"/>
    <path d="M860 0 720 320M1040 0 900 320M1220 0 1080 320"/>
  </g>
  <g transform="translate(72 62)">
    <rect width="196" height="196" rx="14" fill="#101317" stroke="#4d555b" stroke-width="2"/>
    <path d="M45 48h37l21 24 22-24h28v83l-29 10v-40l-21 23-25-27v58H45z" fill="url(#silver)"/>
    <path d="M127 50v28h27" fill="none" stroke="#737c83" stroke-width="5"/>
    <path d="M145 125c-9 13-16 23-16 33a16 16 0 0 0 32 0c0-10-7-20-16-33z" fill="#cbd0d3"/>
    <g fill="#858e95"><rect x="164" y="115" width="8" height="8"/><rect x="176" y="128" width="6" height="6"/><rect x="161" y="140" width="7" height="7"/></g>
  </g>
  <g transform="translate(315 78)" font-family="Inter,Segoe UI,DejaVu Sans,sans-serif">
    <text x="0" y="80" fill="#f4f5f6" font-size="82" font-weight="720" letter-spacing="5">METADROP</text>
    <text x="4" y="121" fill="#aab1b6" font-size="20" letter-spacing="4">INSPECT · SANITIZE · VERIFY</text>
    <g transform="translate(4 154)" font-size="14" font-weight="600" letter-spacing="1">
      <rect width="92" height="32" fill="#22282d" stroke="#4d555b"/><text x="16" y="21" fill="#dfe2e4">C++20</text>
      <rect x="104" width="142" height="32" fill="#22282d" stroke="#4d555b"/><text x="120" y="21" fill="#dfe2e4">QT 6 WIDGETS</text>
      <rect x="258" width="120" height="32" fill="#22282d" stroke="#4d555b"/><text x="274" y="21" fill="#dfe2e4">LOCAL ONLY</text>
      <rect x="390" width="144" height="32" fill="#22282d" stroke="#4d555b"/><text x="406" y="21" fill="#dfe2e4">SOURCE SAFE</text>
    </g>
  </g>
  <rect y="314" width="1200" height="6" fill="#c7ccd0"/>
</svg>
